<svg viewBox="0 0 1200 700" xmlns="http://www.w3.org/2000/svg" aria-hidden="true">
  <g fill="none" stroke="#E8B25A" stroke-width="1">
    <line x1="120" y1="120" x2="340" y2="80" />
    <line x1="340" y1="80" x2="560" y2="180" />
    <line x1="120" y1="120" x2="260" y2="280" />
    <line x1="260" y1="280" x2="560" y2="180" />
    <line x1="560" y1="180" x2="820" y2="120" />
    <line x1="820" y1="120" x2="1040" y2="240" />
    <line x1="560" y1="180" x2="700" y2="380" />
    <line x1="260" y1="280" x2="460" y2="460" />
    <line x1="460" y1="460" x2="700" y2="380" />
    <line x1="700" y1="380" x2="920" y2="480" />
    <line x1="920" y1="480" x2="1100" y2="380" />
    <line x1="1040" y1="240" x2="1100" y2="380" />
    <line x1="120" y1="120" x2="60" y2="320" />
    <line x1="60" y1="320" x2="260" y2="280" />
    <line x1="460" y1="460" x2="380" y2="620" />
    <line x1="700" y1="380" x2="760" y2="600" />
  </g>
  <g fill="#E8B25A">
    <circle cx="120" cy="120" r="4" />
    <circle cx="340" cy="80" r="3" />
    <circle cx="560" cy="180" r="5" />
    <circle cx="260" cy="280" r="3" />
    <circle cx="820" cy="120" r="4" />
    <circle cx="1040" cy="240" r="3" />
    <circle cx="700" cy="380" r="5" />
    <circle cx="460" cy="460" r="3" />
    <circle cx="920" cy="480" r="4" />
    <circle cx="1100" cy="380" r="3" />
    <circle cx="60" cy="320" r="3" />
    <circle cx="380" cy="620" r="3" />
    <circle cx="760" cy="600" r="3" />
  </g>
</svg>
